<?xml version="1.0" encoding="utf-8"?>
<!-- Generator: Adobe Illustrator 22.0.1, SVG Export Plug-In . SVG Version: 6.00 Build 0)  -->
<svg version="1.1" id="Calque_1" xmlns="http://www.w3.org/2000/svg" xmlns:xlink="http://www.w3.org/1999/xlink" x="0px" y="0px"
	 viewBox="0 0 432 432" style="enable-background:new 0 0 432 432;" xml:space="preserve">
<style type="text/css">
	.st0{fill:#940808;}
	.st1{fill:#E56B6B;}
	.st2{fill:#1A1A1A;}
	.st3{fill:#DD5151;}
	.st4{fill:#6B313C;}
	.st5{fill:#B65165;}
	.st6{fill:#EB899F;}
	.st7{fill:#9C0000;}
	.st8{fill:#4D4D4D;}
	.st9{fill:#C4924B;}
	.st10{fill:#333333;}
	.st11{fill-rule:evenodd;clip-rule:evenodd;fill:#9C0000;}
	.st12{fill:#F68484;}
	.st13{fill:#AB1F1F;}
	.st14{fill:#A45F6F;}
	.st15{fill:#DEB0B0;}
	.st16{fill:#BA3434;}
	.st17{fill:#A57B7C;}
	.st18{fill:#F2F2F2;}
	.st19{fill:#EC1C24;}
	.st20{fill:#A54550;}
	.st21{fill:#FFFFFF;}
	.st22{fill:#AE5B65;}
	.st23{fill:#F5D3D1;}
	.st24{fill:#687A6E;}
	.st25{fill:#231F20;}
	.st26{fill-rule:evenodd;clip-rule:evenodd;fill:#333333;}
	.st27{fill:#F4E6E5;}
	.st28{fill:#EFBB75;}
	.st29{fill:#D8A160;}
	.st30{fill:#EFDDCA;}
	.st31{fill:#A55B6A;}
	.st32{fill:#92A182;}
	.st33{fill:#CCCCCC;}
	.st34{fill:#944E3C;}
	.st35{fill:#C1272D;}
	.st36{fill:#C67B32;}
	.st37{fill:#72696D;}
	.st38{fill:#E3A8A4;}
	.st39{fill:#9FC8C2;}
	.st40{fill:#8B8285;}
	.st41{fill:#71796C;}
	.st42{fill-rule:evenodd;clip-rule:evenodd;fill:#E9C8C3;}
	.st43{fill:#C06666;}
	.st44{fill:#96A4A5;}
	.st45{fill:#C53C3C;}
	.st46{fill:#EA6B74;}
	.st47{fill:#406D8F;}
	.st48{fill:#77A3C0;}
	.st49{fill:#F25850;}
	.st50{fill:#253245;}
	.st51{fill:#FFAA96;}
	.st52{fill:#E0C8A4;}
	.st53{fill:#39ABA9;}
	.st54{fill:#F6DE96;}
	.st55{fill:#F1D2CD;}
	.st56{fill:#E8C3C3;}
	.st57{fill:#AB2130;}
	.st58{fill:#982A3A;}
	.st59{fill:#E19F78;}
	.st60{fill:#FEDED2;}
	.st61{fill:#FFB0A1;}
	.st62{fill:#DB3434;}
	.st63{fill:#C76B6A;}
	.st64{fill:#E05E90;}
	.st65{fill:#CE9F5C;}
	.st66{fill:#FF8D71;}
	.st67{fill:#B75041;}
	.st68{fill:#FCE4B6;}
	.st69{fill:#B24A58;}
	.st70{fill:#3C0303;}
	.st71{fill:#8B1111;}
	.st72{fill:#B02121;}
	.st73{fill:#29285B;}
	.st74{fill:#E6E6E6;}
	.st75{fill:#D59D79;}
	.st76{fill:#F0C880;}
	.st77{fill:#B3B3B3;}
	.st78{fill:#C6C6C6;}
	.st79{fill:#A6A6A6;}
	.st80{fill:#603813;}
	.st81{fill:#BC2A34;}
	.st82{fill:#999966;}
	.st83{fill:#666633;}
	.st84{fill:#CC6666;}
	.st85{fill:#663333;}
	.st86{fill-rule:evenodd;clip-rule:evenodd;fill:#FEDED2;}
	.st87{fill:#534741;}
</style>
<g>
	<ellipse class="st74" cx="226.6" cy="345.9" rx="115.8" ry="21.3"/>
	<g>
		<g>
			<g>
				<path class="st78" d="M289.5,98.5c2.5-4.4,3.8-8.9,2.3-13.9c-0.4-1.4-1-2.7-2.2-3.6c-0.9-0.7-1.9-1.3-3-0.8
					c-1.2,0.5-1.5,1.6-1.6,2.8c-0.1,1.4,0.4,2.7,1.1,3.9c0.3,0.5,0.7,1,0.9,1.5c0.3,0.7,0.2,1.2-0.3,1.6c-0.4,0.3-1.1,0.3-1.6-0.1
					c-1.5-1.3-2.5-2.9-2.9-4.9c-0.4-2.1-0.2-4,1-5.8c1.3-2,3.4-2.8,5.7-2.1c2.2,0.6,3.7,1.9,4.8,3.8c1.9,3.2,2.5,6.6,2,10.2
					c-0.1,0.8-0.2,1.6-0.2,2.5c0.2-0.3,0.4-0.5,0.6-0.8c2.2-3.7,3.9-7.6,4.4-11.8c0.4-2.9,0.3-5.8-0.6-8.6c-0.4-1.2-1-2.4-1.9-3.4
					c-1.1-1.2-2.1-1.2-3.2,0c-0.2,0.3-0.5,0.6-0.8,0.8c-0.5,0.5-1.2,0.5-1.7,0.1c-0.5-0.4-0.8-1-0.5-1.7c1-2.4,3.9-4.5,6.9-2.7
					c1.1,0.7,2,1.6,2.7,2.6c1.5,2.3,2.2,4.8,2.5,7.5c0.8,9.2-2.4,17-8.5,23.7c-0.3,0.3-0.6,0.6-0.9,1c0.4,0.2,0.7,0.4,1,0.5
					c1.8,0.9,3.5,1.7,5.3,2.7c2.4,1.4,5,2.3,7.8,2.8c1.5,0.3,3,0.5,4.5,0.7c1.9,0.3,3.7-0.2,5.5-0.6c4.3-0.9,8.4-2.3,12.4-4
					c1.8-0.8,3.6-1.4,5.4-2c1.8-0.6,3.7-0.8,5.6-0.5c2,0.3,3.4,1.4,4.3,3.2c0.9,1.8,1.3,3.7,1.3,5.7c0,3.3-0.5,6.4-1.4,9.6
					c-1.9,6.7-3.9,13.4-5.8,20.1c-1.4,5.1-2.8,10.1-4,15.2c-0.7,3-1,6-1.4,9.1c-0.2,1.5,0,2.9,0.2,4.4c0.7,4.9,1.3,9.7,1.8,14.6
					c0.6,6,1,12.1,1,18.1c0,7.6-1,15.2-2.6,22.6c-1,4.7-2.3,9.4-3.8,14c-1,3.2-1.7,6.6-2.7,9.8c-2.6,8.7-6.2,17-10.9,24.8
					c-8.3,13.7-19.3,24.7-32.8,33.3c-8.7,5.5-17.9,9.7-27.8,12.4c-0.8,0.2-1.2,0.6-1.5,1.3c-0.9,2.6-1.7,5.2-1.9,7.9
					c-0.2,3.7,0.9,4,3.2,4.8c1.2,0.4,2.3,0.8,3.4,1.4c4,2.2,5.5,6.4,3.8,10.7c-1.7,4.2-4.9,6.6-9.1,7.5c-3.8,0.9-7.6,0.8-11.4,0.1
					c-0.7-0.1-1.4-0.4-2-0.7c-2.8-1.2-4.4-3.3-4.9-6.4c-0.4-2.7-0.2-5.5,0.4-8.1c0.9-3.6,2-7.2,3-10.8c0.4-1.3,0.7-2.6,1-3.9
					c0.1-0.3,0.1-0.6,0.1-1c-10.8,0.7-21.1-1-31.2-5.4c-0.1,0.6-0.2,1-0.2,1.4c-0.1,3.7,0.6,7.3,1.7,10.9c0.9,2.9,1.7,5.8,2.5,8.7
					c0.5,1.9,0.5,3.8-0.1,5.7c-1,3.7-3.6,5.8-7.2,6.7c-3.1,0.8-6.2,1-9.4,1c-2.7,0-5.5-0.3-8.1-1c-5-1.2-7.8-6.8-5.9-11.6
					c1.2-3,3.3-5,6.3-6.2c1.1-0.4,2.2-0.8,3.3-1.2c1.4-0.5,2.3-1.5,2.9-2.8c1.1-2.6,1.2-5.2,0.9-7.9c-0.5-4.5-1.5-8.8-2.7-13.2
					c-0.2-0.7-0.5-1.3-1.1-1.8c-4.6-4.3-8.3-9.3-11.5-14.8c-1.2-2-2.7-3.7-4.5-5.2c-2.2-1.7-4.4-3.3-6.5-5.1
					c-6.5-5.5-11.4-12.3-15.5-19.7c-6.2-11.4-10.5-23.4-13.4-36c-1.9-8.2-3.3-16.6-4.1-25c-0.6-6.6-1.2-13.2-1.8-19.8
					c-0.5-5.6-0.8-11.1-1.7-16.7c-0.8-4.9-1.9-9.8-4-14.4c-1.1-2.3-2.3-4.6-4-6.5c-0.9-1-1.9-2-3-2.7c-2.8-1.9-5.8-1.8-8.7-0.3
					c-2.9,1.6-4.6,4-4.6,7.4c0,2.6,0.5,5,1.7,7.3c1.2,2.2,2.5,4.4,3.7,6.6c1.9,3.5,3.2,7.1,3.9,11c0.7,4.1,0.2,8-1.7,11.6
					c-1.7,3.4-4.4,5.4-8.1,5.9c-1.9,0.3-3.8-0.2-5.6-0.8c-2.8-0.9-5.4-2.4-7.6-4.3c-6.5-5.4-10.5-12.3-11.5-20.7
					c-0.6-5.1,0-10.1,1.7-14.9c2.3-6.7,5.8-12.5,11.4-17c5.1-4.1,10.8-6.3,17.3-6.9c3.4-0.3,6.8-0.3,10.2,0.2
					c4.6,0.7,8.8,2.6,12.8,5c6.9,4.3,12,10.2,15.8,17.3c3.3,6.1,5.3,12.5,6.5,19.2c1.7,9.6,2.2,19.3,2,29.1
					c-0.2,9.3-0.4,18.6-0.5,27.8c-0.1,6.6,0.2,13.2,1.1,19.7c1.5,11.2,4.8,21.8,10.4,31.6c0.7,1.3,1.6,2.5,2.4,3.7
					c0.1,0.2,0.4,0.4,0.7,0.5c-0.4-1.6-0.9-3.1-1.3-4.7c-1.7-6.9-2.9-13.9-3.4-21c-0.6-7.5-0.3-15,0.3-22.5c0.8-9.9,2.3-19.7,5-29.3
					c4.2-15.5,10.9-29.9,19.2-43.5c7.5-12.3,16.3-23.5,26.8-33.5c0.2-0.2,0.5-0.5,0.7-0.7c2.1-1.6,3.6-3.8,4.8-6.1
					c3.7-6.8,6.6-14,8.9-21.4c0.8-2.6,1.6-5.1,2.5-7.7c0.5-1.4,1.1-2.8,1.8-4.1c0.9-1.8,2.2-3.3,3.9-4.6c2.3-1.8,4.8-2.2,7.5-1
					c1.3,0.6,2.6,1.3,3.7,2.1c1.8,1.3,3.5,2.8,5.1,4.3c4.5,4.1,9.3,8,14.4,11.4c0.4,0.3,0.8,0.5,1.2,0.8c1.7,1.2,3.6,2,5.8,2.3
					c1.7,0.2,3.4,0.7,5,1.1C288.6,98.3,289,98.3,289.5,98.5z"/>
			</g>
			<g>
				<path class="st2" d="M275.3,157.6c0.1,1.6,0,3,0.2,4.5c0.3,2.3,0.5,4.6,1,6.8c0.8,3.6,2.9,6.4,6,8.4c3.8,2.5,8,4.1,12.5,4.8
					c3,0.5,5.9-0.1,8.7-1.4c2.9-1.4,5.6-3,8.1-5.1c2.2-1.9,4.3-3.9,6.4-5.9c0.3-0.3,0.6-0.5,1-0.8c0.6-0.5,1.1-0.5,1.7-0.1
					c0.6,0.4,0.9,1.1,0.6,1.8c-0.3,0.7-0.7,1.3-1.2,1.9c-3.3,3.7-7,6.9-11.3,9.4c-0.7,0.4-1.4,0.8-2.1,1.2c-4.8,2.7-9.8,3.4-15.1,2
					c-3.3-0.8-6.5-2.1-9.5-3.7c-5.6-3.1-8.9-7.7-9.8-14c-0.4-2.7-0.5-5.5-0.8-8.3c0-0.3,0-0.7-0.1-1.3c-0.4,0.6-0.7,0.9-0.9,1.3
					c-1.6,2.1-3.2,4.4-4.9,6.4c-2.3,2.7-5.4,4.4-8.9,5.1c-2.9,0.6-5.9,0.4-8.7-0.5c-7.2-2.2-13.6-5.8-19.2-10.8
					c-2.5-2.3-4.5-4.9-5.1-8.3c-0.3-1.6-0.5-3.2-0.5-4.7c0-2.3,0.2-4.6,0.4-6.9c0-0.5,0.2-1,0.3-1.5c0.3-0.7,0.8-1.1,1.4-1.1
					c0.6,0,1.1,0.4,1.3,1.2c0.2,0.8,0.2,1.7,0.3,2.5c0,1.4-0.1,2.9-0.1,4.3c0,1.3,0,2.7,0.2,4c0.2,2.5,1.2,4.7,3,6.5
					c1,1,2,2,3.1,2.9c4.9,3.9,10.3,6.9,16.4,8.6c2.2,0.6,4.5,0.7,6.7,0.3c2.8-0.6,5.2-2,7-4.2c1.8-2.2,3.5-4.5,5.3-6.9
					c-0.4-0.3-0.7-0.5-1-0.7c-1.5-0.9-2.8-2.1-3.7-3.5c-1.2-1.9-0.9-3.5,0.9-4.8c1.3-1,2.9-1.4,4.5-1.4c3.6,0.1,6.9,1.1,9.7,3.5
					c0.8,0.7,1.6,1.5,2.1,2.5c1.3,2.2,0.5,4.3-1.9,5.2c-0.5,0.2-1,0.3-1.5,0.4C277,157.3,276.2,157.4,275.3,157.6z"/>
				<g>
					<g>
						<path class="st8" d="M236.2,138c0.7,0.2,1.5,0.4,2.2,0.7c4,1.7,8.1,3.4,12,5.2c1.2,0.6,2.4,1.4,3.5,2.2c0.4,0.3,0.7,0.7,1,1.1
							c0.1,0.2,0.1,0.7-0.1,0.9c-0.2,0.2-0.6,0.3-1,0.3c-0.3,0-0.6-0.2-0.9-0.4c-4.1-2.6-8.7-4.2-13.1-6.1c-1.2-0.5-2.3-1-3.4-1.6
							c-0.4-0.2-0.8-0.7-1.1-1.2C234.9,138.7,235.4,138,236.2,138z"/>
						<path class="st8" d="M243,130.6c0.2,0.1,0.5,0.1,0.7,0.3c4.4,2.2,8.7,4.7,12.5,7.9c0.9,0.7,1.6,1.6,2.3,2.5
							c0.3,0.4,0.5,0.9,0.6,1.3c0.1,0.3-0.1,0.8-0.4,1c-0.2,0.2-0.7,0.1-1-0.1c-0.3-0.1-0.5-0.4-0.8-0.6c-2.4-2.3-5-4.2-7.8-5.9
							c-2.1-1.3-4.2-2.6-6.3-4c-0.3-0.2-0.7-0.5-0.9-0.9C241.6,131.4,242,130.6,243,130.6z"/>
						<path class="st8" d="M240.3,149.6c3.4,0,6.9,0.1,10.3,0.8c1.2,0.2,2.4,0.7,3.6,1.1c0.3,0.1,0.6,0.2,0.8,0.4
							c0.2,0.2,0.5,0.6,0.4,0.8c0,0.3-0.4,0.6-0.7,0.6c-0.4,0.1-0.9,0.1-1.4,0c-5.1-1.1-10.2-1.2-15.4-1.2c-1,0-2-0.1-3-0.2
							c-0.8-0.1-1.2-0.4-1.2-1c0-0.6,0.4-1.1,1.2-1.2c0.9-0.1,1.8-0.1,2.6-0.1C238.5,149.6,239.4,149.6,240.3,149.6z"/>
					</g>
					<g>
						<path class="st8" d="M310,162.5c-0.7-0.3-1.4-0.6-2.1-0.9c-4.2-1.2-8.4-2.5-12.6-3.7c-1.3-0.4-2.7-0.4-4.1-0.5
							c-0.5,0-1,0.1-1.5,0.3c-0.3,0.1-0.6,0.5-0.5,0.7c0,0.3,0.3,0.7,0.5,0.9c0.2,0.2,0.6,0.2,1,0.3c4.8,0.6,9.4,2.2,14,3.6
							c1.2,0.4,2.4,0.7,3.6,1c0.5,0.1,1.1,0,1.6-0.2C310.6,163.8,310.6,163,310,162.5z"/>
						<path class="st8" d="M309.5,152.5c-0.2-0.1-0.4-0.2-0.7-0.3c-4.8-1.1-9.7-1.9-14.7-1.8c-1.1,0-2.3,0.2-3.4,0.4
							c-0.5,0.1-1,0.3-1.3,0.6c-0.2,0.2-0.4,0.7-0.3,1c0.1,0.3,0.5,0.5,0.8,0.6c0.3,0.1,0.7,0,1,0c3.3-0.3,6.5,0,9.8,0.4
							c2.4,0.4,4.9,0.6,7.4,0.9c0.4,0,0.9,0,1.2-0.1C310.1,154,310.2,153.1,309.5,152.5z"/>
						<path class="st8" d="M299.5,168.9c-2.6-2.2-5.4-4.3-8.4-5.9c-1.1-0.6-2.3-1-3.5-1.5c-0.3-0.1-0.6-0.2-0.9-0.1
							c-0.3,0-0.7,0.2-0.8,0.4c-0.1,0.2-0.1,0.7,0.1,0.9c0.3,0.4,0.6,0.7,1,0.9c4.6,2.3,8.7,5.5,12.7,8.8c0.8,0.6,1.6,1.2,2.5,1.7
							c0.7,0.5,1.2,0.4,1.6,0c0.4-0.4,0.4-1.1-0.2-1.7c-0.6-0.6-1.3-1.2-2-1.7C300.9,170,300.2,169.5,299.5,168.9z"/>
					</g>
				</g>
				<g>
					<path class="st2" d="M297.3,137.7c-0.8,0.2-2.1,0.4-3.4,0.7c-1.1,0.2-1.6,0.1-1.9-0.4c-0.3-0.6,0-1.2,0.8-1.8
						c2-1.4,4.2-1.8,6.6-1.6c3.7,0.3,6.7,2,8.9,5c0.3,0.4,0.6,0.9,0.8,1.4c0.2,0.7,0,1.3-0.5,1.7c-0.5,0.4-1.3,0.4-1.9-0.1
						c-0.3-0.2-0.5-0.6-0.7-0.9C304,138.9,301.2,137.8,297.3,137.7z"/>
					<path class="st2" d="M260.5,124c3.9,0.1,7,1.2,9.2,4.1c0.2,0.3,0.5,0.6,0.6,0.9c0.3,0.7,0.1,1.3-0.3,1.7
						c-0.5,0.4-1.1,0.4-1.8,0c-0.2-0.2-0.5-0.3-0.7-0.6c-2.9-3.5-6.6-3.7-10.6-2.6c-0.3,0.1-0.6,0.2-0.8,0.3c-0.5,0.1-1-0.1-1.2-0.5
						c-0.1-0.3-0.2-0.9,0-1.2c0.4-0.5,0.9-1,1.5-1.3C257.8,124.2,259.3,124.1,260.5,124z"/>
				</g>
			</g>
		</g>
		<path class="st7" d="M253.5,212.2c0.6-0.5,1.1-0.9,1.5-1.3c4.1-3.7,8.3-7,13.2-9.7c5.3-2.9,11-4.7,17.1-5.2c2.3-0.2,4.6,0,6.7,0.8
			c4.7,1.7,7.1,5.3,7.5,10.2c0.4,4.2-0.8,8.1-2.4,12c-1.9,4.6-4.6,8.6-7.7,12.5c-5.1,6.5-11.2,12.1-17.4,17.5
			c-8.3,7.2-17.1,13.7-26.8,19.1c-3.8,2.1-7.8,3.8-12,5c-2.7,0.7-5.4,1-8.2,0.4c-2.9-0.6-5.2-2.1-6.8-4.6c-1.3-1.9-2-4.1-2.6-6.3
			c-3-11.2-4-22.7-4.1-34.2c0-6,0.2-12,1.2-18c1.4-8,3.8-15.6,8-22.6c2.3-3.9,5.3-7.2,9.5-9.2c5.2-2.6,10.1-2,14.7,1.4
			c3,2.3,5.1,5.2,6.5,8.8c1.8,4.7,2.3,9.6,2.3,14.6C253.8,206.2,253.6,209.1,253.5,212.2z"/>
		<g>
			<path class="st79" d="M235.7,198.2c2.4,3.8-0.8,10-5.7,9.7c0,0.2-0.1,0.5-0.1,0.7c-0.1,1.5-0.5,2.9-1.3,4.1
				c-1.3,2.1-3.7,3-6.1,2.2c-0.7-0.2-1.4-0.6-2.1-1c-1.9-1.1-3.5-2.6-5-4.2c-2.9-3.1-5.4-6.4-7.7-9.9c-4.8-7-8.6-14.6-11.7-22.5
				c-1-2.5-1.6-5.1-2-7.7c-0.2-1.4-0.2-2.9,0.1-4.3c0.6-2.3,2.2-3.6,4.5-3.8c1.4-0.1,2.7,0.2,4,0.8c1.9,0.9,3.6,2,5,3.4
				c2.3,2.2,4.6,4.5,6.8,6.8c2.8,2.9,5.7,5.8,9,8.1c2.7,2,5.7,3.5,9,4.6c0.6,0.2,1.3,0.4,1.9,0.7c0.6,0.2,1.1,0.4,1.7,0.7
				c4.1,1.9,5,5.9,2.3,9.4C237.5,196.6,236.6,197.3,235.7,198.2z"/>
			<path class="st79" d="M277.7,212c-4.3,1.3-6.1,8-2.2,11c-0.1,0.2-0.2,0.4-0.4,0.6c-1,1.1-1.5,2.5-1.8,3.9c-0.4,2.5,0.7,4.7,3,5.7
				c0.7,0.3,1.5,0.5,2.2,0.7c2.2,0.4,4.4,0.4,6.6,0.2c4.2-0.3,8.3-1.1,12.4-2.1c8.3-2,16.2-5,23.8-8.8c2.4-1.2,4.6-2.6,6.6-4.4
				c1.1-1,2.1-2,2.8-3.3c1.1-2.1,0.8-4.1-0.8-5.9c-1-1-2.2-1.7-3.5-2.1c-1.9-0.6-3.9-0.9-6-0.9c-3.2,0.1-6.4,0.2-9.6,0.5
				c-4,0.3-8.1,0.4-12.1,0c-3.4-0.4-6.6-1.3-9.7-2.6c-0.6-0.3-1.2-0.6-1.9-0.8c-0.6-0.2-1.1-0.4-1.7-0.6c-4.3-1.3-7.7,1-8,5.4
				C277.5,209.6,277.7,210.7,277.7,212z"/>
		</g>
	</g>
</g>
</svg>
